<?xml version="1.0" standalone="no"?>
<svg xmlns="http://www.w3.org/2000/svg" width="500" height="500"><defs><clipPath id="clip-path-dot-color"><circle cx="26" cy="138" r="7" transform="rotate(0,26,138)"/><circle cx="26" cy="152" r="7" transform="rotate(0,26,152)"/><circle cx="26" cy="180" r="7" transform="rotate(0,26,180)"/><circle cx="26" cy="194" r="7" transform="rotate(0,26,194)"/><circle cx="26" cy="222" r="7" transform="rotate(0,26,222)"/><circle cx="26" cy="236" r="7" transform="rotate(0,26,236)"/><circle cx="26" cy="278" r="7" transform="rotate(0,26,278)"/><circle cx="26" cy="292" r="7" transform="rotate(0,26,292)"/><circle cx="26" cy="306" r="7" transform="rotate(0,26,306)"/><circle cx="26" cy="334" r="7" transform="rotate(0,26,334)"/><circle cx="26" cy="348" r="7" transform="rotate(0,26,348)"/><circle cx="40" cy="138" r="7" transform="rotate(0,40,138)"/><circle cx="40" cy="152" r="7" transform="rotate(0,40,152)"/><circle cx="40" cy="194" r="7" transform="rotate(0,40,194)"/><circle cx="40" cy="222" r="7" transform="rotate(0,40,222)"/><circle cx="40" cy="236" r="7" transform="rotate(0,40,236)"/><circle cx="40" cy="264" r="7" transform="rotate(0,40,264)"/><circle cx="40" cy="292" r="7" transform="rotate(0,40,292)"/><circle cx="40" cy="320" r="7" transform="rotate(0,40,320)"/><circle cx="40" cy="348" r="7" transform="rotate(0,40,348)"/><circle cx="54" cy="138" r="7" transform="rotate(0,54,138)"/><circle cx="54" cy="166" r="7" transform="rotate(0,54,166)"/><circle cx="54" cy="180" r="7" transform="rotate(0,54,180)"/><circle cx="54" cy="194" r="7" transform="rotate(0,54,194)"/><circle cx="54" cy="208" r="7" transform="rotate(0,54,208)"/><circle cx="54" cy="236" r="7" transform="rotate(0,54,236)"/><circle cx="54" cy="292" r="7" transform="rotate(0,54,292)"/><circle cx="54" cy="306" r="7" transform="rotate(0,54,306)"/><circle cx="54" cy="362" r="7" transform="rotate(0,54,362)"/><circle cx="68" cy="138" r="7" transform="rotate(0,68,138)"/><circle cx="68" cy="152" r="7" transform="rotate(0,68,152)"/><circle cx="68" cy="236" r="7" transform="rotate(0,68,236)"/><circle cx="68" cy="250" r="7" transform="rotate(0,68,250)"/><circle cx="68" cy="264" r="7" transform="rotate(0,68,264)"/><circle cx="68" cy="292" r="7" transform="rotate(0,68,292)"/><circle cx="68" cy="320" r="7" transform="rotate(0,68,320)"/><circle cx="68" cy="348" r="7" transform="rotate(0,68,348)"/><circle cx="82" cy="138" r="7" transform="rotate(0,82,138)"/><circle cx="82" cy="180" r="7" transform="rotate(0,82,180)"/><circle cx="82" cy="208" r="7" transform="rotate(0,82,208)"/><circle cx="82" cy="222" r="7" transform="rotate(0,82,222)"/><circle cx="82" cy="236" r="7" transform="rotate(0,82,236)"/><circle cx="82" cy="250" r="7" transform="rotate(0,82,250)"/><circle cx="82" cy="264" r="7" transform="rotate(0,82,264)"/><circle cx="96" cy="180" r="7" transform="rotate(0,96,180)"/><circle cx="96" cy="236" r="7" transform="rotate(0,96,236)"/><circle cx="96" cy="278" r="7" transform="rotate(0,96,278)"/><circle cx="96" cy="320" r="7" transform="rotate(0,96,320)"/><circle cx="96" cy="334" r="7" transform="rotate(0,96,334)"/><circle cx="110" cy="138" r="7" transform="rotate(0,110,138)"/><circle cx="110" cy="166" r="7" transform="rotate(0,110,166)"/><circle cx="110" cy="194" r="7" transform="rotate(0,110,194)"/><circle cx="110" cy="222" r="7" transform="rotate(0,110,222)"/><circle cx="110" cy="250" r="7" transform="rotate(0,110,250)"/><circle cx="110" cy="278" r="7" transform="rotate(0,110,278)"/><circle cx="110" cy="306" r="7" transform="rotate(0,110,306)"/><circle cx="110" cy="334" r="7" transform="rotate(0,110,334)"/><circle cx="110" cy="362" r="7" transform="rotate(0,110,362)"/><circle cx="124" cy="138" r="7" transform="rotate(0,124,138)"/><circle cx="124" cy="152" r="7" transform="rotate(0,124,152)"/><circle cx="124" cy="166" r="7" transform="rotate(0,124,166)"/><circle cx="124" cy="194" r="7" transform="rotate(0,124,194)"/><circle cx="124" cy="236" r="7" transform="rotate(0,124,236)"/><circle cx="124" cy="264" r="7" transform="rotate(0,124,264)"/><circle cx="124" cy="306" r="7" transform="rotate(0,124,306)"/><circle cx="124" cy="320" r="7" transform="rotate(0,124,320)"/><circle cx="124" cy="334" r="7" transform="rotate(0,124,334)"/><circle cx="124" cy="362" r="7" transform="rotate(0,124,362)"/><circle cx="138" cy="40" r="7" transform="rotate(0,138,40)"/><circle cx="138" cy="54" r="7" transform="rotate(0,138,54)"/><circle cx="138" cy="82" r="7" transform="rotate(0,138,82)"/><circle cx="138" cy="110" r="7" transform="rotate(0,138,110)"/><circle cx="138" cy="124" r="7" transform="rotate(0,138,124)"/><circle cx="138" cy="180" r="7" transform="rotate(0,138,180)"/><circle cx="138" cy="208" r="7" transform="rotate(0,138,208)"/><circle cx="138" cy="222" r="7" transform="rotate(0,138,222)"/><circle cx="138" cy="250" r="7" transform="rotate(0,138,250)"/><circle cx="138" cy="264" r="7" transform="rotate(0,138,264)"/><circle cx="138" cy="292" r="7" transform="rotate(0,138,292)"/><circle cx="138" cy="306" r="7" transform="rotate(0,138,306)"/><circle cx="138" cy="320" r="7" transform="rotate(0,138,320)"/><circle cx="138" cy="334" r="7" transform="rotate(0,138,334)"/><circle cx="138" cy="348" r="7" transform="rotate(0,138,348)"/><circle cx="138" cy="390" r="7" transform="rotate(0,138,390)"/><circle cx="138" cy="418" r="7" transform="rotate(0,138,418)"/><circle cx="138" cy="432" r="7" transform="rotate(0,138,432)"/><circle cx="138" cy="446" r="7" transform="rotate(0,138,446)"/><circle cx="138" cy="460" r="7" transform="rotate(0,138,460)"/><circle cx="138" cy="474" r="7" transform="rotate(0,138,474)"/><circle cx="152" cy="26" r="7" transform="rotate(0,152,26)"/><circle cx="152" cy="40" r="7" transform="rotate(0,152,40)"/><circle cx="152" cy="68" r="7" transform="rotate(0,152,68)"/><circle cx="152" cy="96" r="7" transform="rotate(0,152,96)"/><circle cx="152" cy="138" r="7" transform="rotate(0,152,138)"/><circle cx="152" cy="152" r="7" transform="rotate(0,152,152)"/><circle cx="152" cy="166" r="7" transform="rotate(0,152,166)"/><circle cx="152" cy="180" r="7" transform="rotate(0,152,180)"/><circle cx="152" cy="194" r="7" transform="rotate(0,152,194)"/><circle cx="152" cy="236" r="7" transform="rotate(0,152,236)"/><circle cx="152" cy="250" r="7" transform="rotate(0,152,250)"/><circle cx="152" cy="306" r="7" transform="rotate(0,152,306)"/><circle cx="152" cy="362" r="7" transform="rotate(0,152,362)"/><circle cx="152" cy="376" r="7" transform="rotate(0,152,376)"/><circle cx="152" cy="390" r="7" transform="rotate(0,152,390)"/><circle cx="152" cy="404" r="7" transform="rotate(0,152,404)"/><circle cx="152" cy="474" r="7" transform="rotate(0,152,474)"/><circle cx="166" cy="54" r="7" transform="rotate(0,166,54)"/><circle cx="166" cy="68" r="7" transform="rotate(0,166,68)"/><circle cx="166" cy="110" r="7" transform="rotate(0,166,110)"/><circle cx="166" cy="124" r="7" transform="rotate(0,166,124)"/><circle cx="166" cy="152" r="7" transform="rotate(0,166,152)"/><circle cx="166" cy="166" r="7" transform="rotate(0,166,166)"/><circle cx="166" cy="180" r="7" transform="rotate(0,166,180)"/><circle cx="166" cy="194" r="7" transform="rotate(0,166,194)"/><circle cx="166" cy="222" r="7" transform="rotate(0,166,222)"/><circle cx="166" cy="236" r="7" transform="rotate(0,166,236)"/><circle cx="166" cy="264" r="7" transform="rotate(0,166,264)"/><circle cx="166" cy="320" r="7" transform="rotate(0,166,320)"/><circle cx="166" cy="404" r="7" transform="rotate(0,166,404)"/><circle cx="166" cy="446" r="7" transform="rotate(0,166,446)"/><circle cx="166" cy="460" r="7" transform="rotate(0,166,460)"/><circle cx="166" cy="474" r="7" transform="rotate(0,166,474)"/><circle cx="180" cy="54" r="7" transform="rotate(0,180,54)"/><circle cx="180" cy="96" r="7" transform="rotate(0,180,96)"/><circle cx="180" cy="152" r="7" transform="rotate(0,180,152)"/><circle cx="180" cy="180" r="7" transform="rotate(0,180,180)"/><circle cx="180" cy="208" r="7" transform="rotate(0,180,208)"/><circle cx="180" cy="250" r="7" transform="rotate(0,180,250)"/><circle cx="180" cy="292" r="7" transform="rotate(0,180,292)"/><circle cx="180" cy="306" r="7" transform="rotate(0,180,306)"/><circle cx="180" cy="348" r="7" transform="rotate(0,180,348)"/><circle cx="180" cy="362" r="7" transform="rotate(0,180,362)"/><circle cx="180" cy="376" r="7" transform="rotate(0,180,376)"/><circle cx="180" cy="418" r="7" transform="rotate(0,180,418)"/><circle cx="180" cy="474" r="7" transform="rotate(0,180,474)"/><circle cx="194" cy="110" r="7" transform="rotate(0,194,110)"/><circle cx="194" cy="138" r="7" transform="rotate(0,194,138)"/><circle cx="194" cy="166" r="7" transform="rotate(0,194,166)"/><circle cx="194" cy="194" r="7" transform="rotate(0,194,194)"/><circle cx="194" cy="208" r="7" transform="rotate(0,194,208)"/><circle cx="194" cy="236" r="7" transform="rotate(0,194,236)"/><circle cx="194" cy="250" r="7" transform="rotate(0,194,250)"/><circle cx="194" cy="362" r="7" transform="rotate(0,194,362)"/><circle cx="194" cy="376" r="7" transform="rotate(0,194,376)"/><circle cx="194" cy="390" r="7" transform="rotate(0,194,390)"/><circle cx="194" cy="432" r="7" transform="rotate(0,194,432)"/><circle cx="194" cy="460" r="7" transform="rotate(0,194,460)"/><circle cx="208" cy="26" r="7" transform="rotate(0,208,26)"/><circle cx="208" cy="40" r="7" transform="rotate(0,208,40)"/><circle cx="208" cy="68" r="7" transform="rotate(0,208,68)"/><circle cx="208" cy="96" r="7" transform="rotate(0,208,96)"/><circle cx="208" cy="152" r="7" transform="rotate(0,208,152)"/><circle cx="208" cy="180" r="7" transform="rotate(0,208,180)"/><circle cx="208" cy="250" r="7" transform="rotate(0,208,250)"/><circle cx="208" cy="264" r="7" transform="rotate(0,208,264)"/><circle cx="208" cy="292" r="7" transform="rotate(0,208,292)"/><circle cx="208" cy="348" r="7" transform="rotate(0,208,348)"/><circle cx="208" cy="376" r="7" transform="rotate(0,208,376)"/><circle cx="208" cy="390" r="7" transform="rotate(0,208,390)"/><circle cx="208" cy="474" r="7" transform="rotate(0,208,474)"/><circle cx="222" cy="26" r="7" transform="rotate(0,222,26)"/><circle cx="222" cy="54" r="7" transform="rotate(0,222,54)"/><circle cx="222" cy="82" r="7" transform="rotate(0,222,82)"/><circle cx="222" cy="110" r="7" transform="rotate(0,222,110)"/><circle cx="222" cy="124" r="7" transform="rotate(0,222,124)"/><circle cx="222" cy="138" r="7" transform="rotate(0,222,138)"/><circle cx="222" cy="152" r="7" transform="rotate(0,222,152)"/><circle cx="222" cy="166" r="7" transform="rotate(0,222,166)"/><circle cx="222" cy="236" r="7" transform="rotate(0,222,236)"/><circle cx="222" cy="250" r="7" transform="rotate(0,222,250)"/><circle cx="222" cy="264" r="7" transform="rotate(0,222,264)"/><circle cx="222" cy="320" r="7" transform="rotate(0,222,320)"/><circle cx="222" cy="376" r="7" transform="rotate(0,222,376)"/><circle cx="222" cy="404" r="7" transform="rotate(0,222,404)"/><circle cx="222" cy="432" r="7" transform="rotate(0,222,432)"/><circle cx="222" cy="460" r="7" transform="rotate(0,222,460)"/><circle cx="222" cy="474" r="7" transform="rotate(0,222,474)"/><circle cx="236" cy="26" r="7" transform="rotate(0,236,26)"/><circle cx="236" cy="96" r="7" transform="rotate(0,236,96)"/><circle cx="236" cy="138" r="7" transform="rotate(0,236,138)"/><circle cx="236" cy="166" r="7" transform="rotate(0,236,166)"/><circle cx="236" cy="208" r="7" transform="rotate(0,236,208)"/><circle cx="236" cy="222" r="7" transform="rotate(0,236,222)"/><circle cx="236" cy="264" r="7" transform="rotate(0,236,264)"/><circle cx="236" cy="278" r="7" transform="rotate(0,236,278)"/><circle cx="236" cy="292" r="7" transform="rotate(0,236,292)"/><circle cx="236" cy="320" r="7" transform="rotate(0,236,320)"/><circle cx="236" cy="362" r="7" transform="rotate(0,236,362)"/><circle cx="236" cy="390" r="7" transform="rotate(0,236,390)"/><circle cx="236" cy="404" r="7" transform="rotate(0,236,404)"/><circle cx="236" cy="460" r="7" transform="rotate(0,236,460)"/><circle cx="250" cy="54" r="7" transform="rotate(0,250,54)"/><circle cx="250" cy="96" r="7" transform="rotate(0,250,96)"/><circle cx="250" cy="110" r="7" transform="rotate(0,250,110)"/><circle cx="250" cy="124" r="7" transform="rotate(0,250,124)"/><circle cx="250" cy="138" r="7" transform="rotate(0,250,138)"/><circle cx="250" cy="166" r="7" transform="rotate(0,250,166)"/><circle cx="250" cy="194" r="7" transform="rotate(0,250,194)"/><circle cx="250" cy="222" r="7" transform="rotate(0,250,222)"/><circle cx="250" cy="236" r="7" transform="rotate(0,250,236)"/><circle cx="250" cy="264" r="7" transform="rotate(0,250,264)"/><circle cx="250" cy="320" r="7" transform="rotate(0,250,320)"/><circle cx="250" cy="348" r="7" transform="rotate(0,250,348)"/><circle cx="250" cy="362" r="7" transform="rotate(0,250,362)"/><circle cx="250" cy="376" r="7" transform="rotate(0,250,376)"/><circle cx="250" cy="390" r="7" transform="rotate(0,250,390)"/><circle cx="264" cy="40" r="7" transform="rotate(0,264,40)"/><circle cx="264" cy="96" r="7" transform="rotate(0,264,96)"/><circle cx="264" cy="166" r="7" transform="rotate(0,264,166)"/><circle cx="264" cy="180" r="7" transform="rotate(0,264,180)"/><circle cx="264" cy="194" r="7" transform="rotate(0,264,194)"/><circle cx="264" cy="208" r="7" transform="rotate(0,264,208)"/><circle cx="264" cy="222" r="7" transform="rotate(0,264,222)"/><circle cx="264" cy="264" r="7" transform="rotate(0,264,264)"/><circle cx="264" cy="306" r="7" transform="rotate(0,264,306)"/><circle cx="264" cy="320" r="7" transform="rotate(0,264,320)"/><circle cx="264" cy="362" r="7" transform="rotate(0,264,362)"/><circle cx="264" cy="376" r="7" transform="rotate(0,264,376)"/><circle cx="264" cy="390" r="7" transform="rotate(0,264,390)"/><circle cx="264" cy="404" r="7" transform="rotate(0,264,404)"/><circle cx="264" cy="460" r="7" transform="rotate(0,264,460)"/><circle cx="264" cy="474" r="7" transform="rotate(0,264,474)"/><circle cx="278" cy="40" r="7" transform="rotate(0,278,40)"/><circle cx="278" cy="54" r="7" transform="rotate(0,278,54)"/><circle cx="278" cy="68" r="7" transform="rotate(0,278,68)"/><circle cx="278" cy="82" r="7" transform="rotate(0,278,82)"/><circle cx="278" cy="96" r="7" transform="rotate(0,278,96)"/><circle cx="278" cy="110" r="7" transform="rotate(0,278,110)"/><circle cx="278" cy="124" r="7" transform="rotate(0,278,124)"/><circle cx="278" cy="152" r="7" transform="rotate(0,278,152)"/><circle cx="278" cy="250" r="7" transform="rotate(0,278,250)"/><circle cx="278" cy="278" r="7" transform="rotate(0,278,278)"/><circle cx="278" cy="306" r="7" transform="rotate(0,278,306)"/><circle cx="278" cy="334" r="7" transform="rotate(0,278,334)"/><circle cx="278" cy="376" r="7" transform="rotate(0,278,376)"/><circle cx="278" cy="446" r="7" transform="rotate(0,278,446)"/><circle cx="278" cy="474" r="7" transform="rotate(0,278,474)"/><circle cx="292" cy="26" r="7" transform="rotate(0,292,26)"/><circle cx="292" cy="54" r="7" transform="rotate(0,292,54)"/><circle cx="292" cy="68" r="7" transform="rotate(0,292,68)"/><circle cx="292" cy="180" r="7" transform="rotate(0,292,180)"/><circle cx="292" cy="194" r="7" transform="rotate(0,292,194)"/><circle cx="292" cy="208" r="7" transform="rotate(0,292,208)"/><circle cx="292" cy="236" r="7" transform="rotate(0,292,236)"/><circle cx="292" cy="264" r="7" transform="rotate(0,292,264)"/><circle cx="292" cy="292" r="7" transform="rotate(0,292,292)"/><circle cx="292" cy="320" r="7" transform="rotate(0,292,320)"/><circle cx="292" cy="334" r="7" transform="rotate(0,292,334)"/><circle cx="292" cy="348" r="7" transform="rotate(0,292,348)"/><circle cx="292" cy="390" r="7" transform="rotate(0,292,390)"/><circle cx="292" cy="404" r="7" transform="rotate(0,292,404)"/><circle cx="292" cy="418" r="7" transform="rotate(0,292,418)"/><circle cx="292" cy="474" r="7" transform="rotate(0,292,474)"/><circle cx="306" cy="54" r="7" transform="rotate(0,306,54)"/><circle cx="306" cy="96" r="7" transform="rotate(0,306,96)"/><circle cx="306" cy="110" r="7" transform="rotate(0,306,110)"/><circle cx="306" cy="124" r="7" transform="rotate(0,306,124)"/><circle cx="306" cy="166" r="7" transform="rotate(0,306,166)"/><circle cx="306" cy="180" r="7" transform="rotate(0,306,180)"/><circle cx="306" cy="222" r="7" transform="rotate(0,306,222)"/><circle cx="306" cy="250" r="7" transform="rotate(0,306,250)"/><circle cx="306" cy="264" r="7" transform="rotate(0,306,264)"/><circle cx="306" cy="292" r="7" transform="rotate(0,306,292)"/><circle cx="306" cy="306" r="7" transform="rotate(0,306,306)"/><circle cx="306" cy="334" r="7" transform="rotate(0,306,334)"/><circle cx="306" cy="348" r="7" transform="rotate(0,306,348)"/><circle cx="306" cy="362" r="7" transform="rotate(0,306,362)"/><circle cx="306" cy="376" r="7" transform="rotate(0,306,376)"/><circle cx="306" cy="390" r="7" transform="rotate(0,306,390)"/><circle cx="306" cy="404" r="7" transform="rotate(0,306,404)"/><circle cx="306" cy="432" r="7" transform="rotate(0,306,432)"/><circle cx="306" cy="460" r="7" transform="rotate(0,306,460)"/><circle cx="320" cy="82" r="7" transform="rotate(0,320,82)"/><circle cx="320" cy="96" r="7" transform="rotate(0,320,96)"/><circle cx="320" cy="138" r="7" transform="rotate(0,320,138)"/><circle cx="320" cy="152" r="7" transform="rotate(0,320,152)"/><circle cx="320" cy="194" r="7" transform="rotate(0,320,194)"/><circle cx="320" cy="208" r="7" transform="rotate(0,320,208)"/><circle cx="320" cy="222" r="7" transform="rotate(0,320,222)"/><circle cx="320" cy="236" r="7" transform="rotate(0,320,236)"/><circle cx="320" cy="264" r="7" transform="rotate(0,320,264)"/><circle cx="320" cy="292" r="7" transform="rotate(0,320,292)"/><circle cx="320" cy="306" r="7" transform="rotate(0,320,306)"/><circle cx="320" cy="320" r="7" transform="rotate(0,320,320)"/><circle cx="320" cy="334" r="7" transform="rotate(0,320,334)"/><circle cx="320" cy="390" r="7" transform="rotate(0,320,390)"/><circle cx="320" cy="446" r="7" transform="rotate(0,320,446)"/><circle cx="320" cy="460" r="7" transform="rotate(0,320,460)"/><circle cx="320" cy="474" r="7" transform="rotate(0,320,474)"/><circle cx="334" cy="26" r="7" transform="rotate(0,334,26)"/><circle cx="334" cy="54" r="7" transform="rotate(0,334,54)"/><circle cx="334" cy="110" r="7" transform="rotate(0,334,110)"/><circle cx="334" cy="138" r="7" transform="rotate(0,334,138)"/><circle cx="334" cy="152" r="7" transform="rotate(0,334,152)"/><circle cx="334" cy="180" r="7" transform="rotate(0,334,180)"/><circle cx="334" cy="208" r="7" transform="rotate(0,334,208)"/><circle cx="334" cy="236" r="7" transform="rotate(0,334,236)"/><circle cx="334" cy="292" r="7" transform="rotate(0,334,292)"/><circle cx="334" cy="306" r="7" transform="rotate(0,334,306)"/><circle cx="334" cy="320" r="7" transform="rotate(0,334,320)"/><circle cx="334" cy="390" r="7" transform="rotate(0,334,390)"/><circle cx="334" cy="404" r="7" transform="rotate(0,334,404)"/><circle cx="334" cy="432" r="7" transform="rotate(0,334,432)"/><circle cx="334" cy="460" r="7" transform="rotate(0,334,460)"/><circle cx="334" cy="474" r="7" transform="rotate(0,334,474)"/><circle cx="348" cy="40" r="7" transform="rotate(0,348,40)"/><circle cx="348" cy="54" r="7" transform="rotate(0,348,54)"/><circle cx="348" cy="166" r="7" transform="rotate(0,348,166)"/><circle cx="348" cy="208" r="7" transform="rotate(0,348,208)"/><circle cx="348" cy="222" r="7" transform="rotate(0,348,222)"/><circle cx="348" cy="236" r="7" transform="rotate(0,348,236)"/><circle cx="348" cy="250" r="7" transform="rotate(0,348,250)"/><circle cx="348" cy="278" r="7" transform="rotate(0,348,278)"/><circle cx="348" cy="306" r="7" transform="rotate(0,348,306)"/><circle cx="348" cy="320" r="7" transform="rotate(0,348,320)"/><circle cx="348" cy="334" r="7" transform="rotate(0,348,334)"/><circle cx="348" cy="376" r="7" transform="rotate(0,348,376)"/><circle cx="348" cy="390" r="7" transform="rotate(0,348,390)"/><circle cx="348" cy="404" r="7" transform="rotate(0,348,404)"/><circle cx="348" cy="418" r="7" transform="rotate(0,348,418)"/><circle cx="348" cy="474" r="7" transform="rotate(0,348,474)"/><circle cx="362" cy="26" r="7" transform="rotate(0,362,26)"/><circle cx="362" cy="54" r="7" transform="rotate(0,362,54)"/><circle cx="362" cy="68" r="7" transform="rotate(0,362,68)"/><circle cx="362" cy="110" r="7" transform="rotate(0,362,110)"/><circle cx="362" cy="138" r="7" transform="rotate(0,362,138)"/><circle cx="362" cy="152" r="7" transform="rotate(0,362,152)"/><circle cx="362" cy="166" r="7" transform="rotate(0,362,166)"/><circle cx="362" cy="250" r="7" transform="rotate(0,362,250)"/><circle cx="362" cy="278" r="7" transform="rotate(0,362,278)"/><circle cx="362" cy="292" r="7" transform="rotate(0,362,292)"/><circle cx="362" cy="306" r="7" transform="rotate(0,362,306)"/><circle cx="362" cy="320" r="7" transform="rotate(0,362,320)"/><circle cx="362" cy="362" r="7" transform="rotate(0,362,362)"/><circle cx="362" cy="376" r="7" transform="rotate(0,362,376)"/><circle cx="362" cy="390" r="7" transform="rotate(0,362,390)"/><circle cx="362" cy="404" r="7" transform="rotate(0,362,404)"/><circle cx="362" cy="418" r="7" transform="rotate(0,362,418)"/><circle cx="362" cy="432" r="7" transform="rotate(0,362,432)"/><circle cx="362" cy="474" r="7" transform="rotate(0,362,474)"/><circle cx="376" cy="138" r="7" transform="rotate(0,376,138)"/><circle cx="376" cy="152" r="7" transform="rotate(0,376,152)"/><circle cx="376" cy="222" r="7" transform="rotate(0,376,222)"/><circle cx="376" cy="236" r="7" transform="rotate(0,376,236)"/><circle cx="376" cy="278" r="7" transform="rotate(0,376,278)"/><circle cx="376" cy="306" r="7" transform="rotate(0,376,306)"/><circle cx="376" cy="348" r="7" transform="rotate(0,376,348)"/><circle cx="376" cy="362" r="7" transform="rotate(0,376,362)"/><circle cx="376" cy="418" r="7" transform="rotate(0,376,418)"/><circle cx="376" cy="432" r="7" transform="rotate(0,376,432)"/><circle cx="376" cy="460" r="7" transform="rotate(0,376,460)"/><circle cx="376" cy="474" r="7" transform="rotate(0,376,474)"/><circle cx="390" cy="138" r="7" transform="rotate(0,390,138)"/><circle cx="390" cy="152" r="7" transform="rotate(0,390,152)"/><circle cx="390" cy="166" r="7" transform="rotate(0,390,166)"/><circle cx="390" cy="208" r="7" transform="rotate(0,390,208)"/><circle cx="390" cy="236" r="7" transform="rotate(0,390,236)"/><circle cx="390" cy="250" r="7" transform="rotate(0,390,250)"/><circle cx="390" cy="264" r="7" transform="rotate(0,390,264)"/><circle cx="390" cy="306" r="7" transform="rotate(0,390,306)"/><circle cx="390" cy="320" r="7" transform="rotate(0,390,320)"/><circle cx="390" cy="348" r="7" transform="rotate(0,390,348)"/><circle cx="390" cy="362" r="7" transform="rotate(0,390,362)"/><circle cx="390" cy="390" r="7" transform="rotate(0,390,390)"/><circle cx="390" cy="418" r="7" transform="rotate(0,390,418)"/><circle cx="390" cy="446" r="7" transform="rotate(0,390,446)"/><circle cx="390" cy="460" r="7" transform="rotate(0,390,460)"/><circle cx="390" cy="474" r="7" transform="rotate(0,390,474)"/><circle cx="404" cy="152" r="7" transform="rotate(0,404,152)"/><circle cx="404" cy="166" r="7" transform="rotate(0,404,166)"/><circle cx="404" cy="180" r="7" transform="rotate(0,404,180)"/><circle cx="404" cy="194" r="7" transform="rotate(0,404,194)"/><circle cx="404" cy="278" r="7" transform="rotate(0,404,278)"/><circle cx="404" cy="292" r="7" transform="rotate(0,404,292)"/><circle cx="404" cy="306" r="7" transform="rotate(0,404,306)"/><circle cx="404" cy="362" r="7" transform="rotate(0,404,362)"/><circle cx="404" cy="418" r="7" transform="rotate(0,404,418)"/><circle cx="418" cy="138" r="7" transform="rotate(0,418,138)"/><circle cx="418" cy="152" r="7" transform="rotate(0,418,152)"/><circle cx="418" cy="222" r="7" transform="rotate(0,418,222)"/><circle cx="418" cy="236" r="7" transform="rotate(0,418,236)"/><circle cx="418" cy="250" r="7" transform="rotate(0,418,250)"/><circle cx="418" cy="362" r="7" transform="rotate(0,418,362)"/><circle cx="418" cy="376" r="7" transform="rotate(0,418,376)"/><circle cx="418" cy="390" r="7" transform="rotate(0,418,390)"/><circle cx="418" cy="404" r="7" transform="rotate(0,418,404)"/><circle cx="418" cy="418" r="7" transform="rotate(0,418,418)"/><circle cx="418" cy="432" r="7" transform="rotate(0,418,432)"/><circle cx="432" cy="222" r="7" transform="rotate(0,432,222)"/><circle cx="432" cy="292" r="7" transform="rotate(0,432,292)"/><circle cx="432" cy="362" r="7" transform="rotate(0,432,362)"/><circle cx="432" cy="418" r="7" transform="rotate(0,432,418)"/><circle cx="432" cy="432" r="7" transform="rotate(0,432,432)"/><circle cx="432" cy="460" r="7" transform="rotate(0,432,460)"/><circle cx="432" cy="474" r="7" transform="rotate(0,432,474)"/><circle cx="446" cy="138" r="7" transform="rotate(0,446,138)"/><circle cx="446" cy="166" r="7" transform="rotate(0,446,166)"/><circle cx="446" cy="194" r="7" transform="rotate(0,446,194)"/><circle cx="446" cy="208" r="7" transform="rotate(0,446,208)"/><circle cx="446" cy="222" r="7" transform="rotate(0,446,222)"/><circle cx="446" cy="236" r="7" transform="rotate(0,446,236)"/><circle cx="446" cy="250" r="7" transform="rotate(0,446,250)"/><circle cx="446" cy="264" r="7" transform="rotate(0,446,264)"/><circle cx="446" cy="278" r="7" transform="rotate(0,446,278)"/><circle cx="446" cy="334" r="7" transform="rotate(0,446,334)"/><circle cx="446" cy="362" r="7" transform="rotate(0,446,362)"/><circle cx="446" cy="376" r="7" transform="rotate(0,446,376)"/><circle cx="446" cy="418" r="7" transform="rotate(0,446,418)"/><circle cx="446" cy="474" r="7" transform="rotate(0,446,474)"/><circle cx="460" cy="138" r="7" transform="rotate(0,460,138)"/><circle cx="460" cy="152" r="7" transform="rotate(0,460,152)"/><circle cx="460" cy="180" r="7" transform="rotate(0,460,180)"/><circle cx="460" cy="194" r="7" transform="rotate(0,460,194)"/><circle cx="460" cy="208" r="7" transform="rotate(0,460,208)"/><circle cx="460" cy="236" r="7" transform="rotate(0,460,236)"/><circle cx="460" cy="250" r="7" transform="rotate(0,460,250)"/><circle cx="460" cy="292" r="7" transform="rotate(0,460,292)"/><circle cx="460" cy="320" r="7" transform="rotate(0,460,320)"/><circle cx="460" cy="334" r="7" transform="rotate(0,460,334)"/><circle cx="460" cy="362" r="7" transform="rotate(0,460,362)"/><circle cx="460" cy="376" r="7" transform="rotate(0,460,376)"/><circle cx="460" cy="418" r="7" transform="rotate(0,460,418)"/><circle cx="460" cy="460" r="7" transform="rotate(0,460,460)"/><circle cx="474" cy="152" r="7" transform="rotate(0,474,152)"/><circle cx="474" cy="180" r="7" transform="rotate(0,474,180)"/><circle cx="474" cy="208" r="7" transform="rotate(0,474,208)"/><circle cx="474" cy="250" r="7" transform="rotate(0,474,250)"/><circle cx="474" cy="278" r="7" transform="rotate(0,474,278)"/><circle cx="474" cy="320" r="7" transform="rotate(0,474,320)"/><circle cx="474" cy="348" r="7" transform="rotate(0,474,348)"/><circle cx="474" cy="362" r="7" transform="rotate(0,474,362)"/><circle cx="474" cy="390" r="7" transform="rotate(0,474,390)"/><circle cx="474" cy="418" r="7" transform="rotate(0,474,418)"/><circle cx="474" cy="460" r="7" transform="rotate(0,474,460)"/><circle cx="474" cy="474" r="7" transform="rotate(0,474,474)"/></clipPath><clipPath id="clip-path-corners-square-color-0-0"><path clip-rule="evenodd" d="M 68 19a 49 49 0 1 0 0.1 0zm 0 14a 35 35 0 1 1 -0.1 0Z" transform="rotate(0,68,68)"/></clipPath><clipPath id="clip-path-corners-dot-color-0-0"><circle cx="68" cy="68" r="21" transform="rotate(0,68,68)"/></clipPath><clipPath id="clip-path-corners-square-color-1-0"><path clip-rule="evenodd" d="M 432 19a 49 49 0 1 0 0.1 0zm 0 14a 35 35 0 1 1 -0.1 0Z" transform="rotate(90,432,68)"/></clipPath><clipPath id="clip-path-corners-dot-color-1-0"><circle cx="432" cy="68" r="21" transform="rotate(90,432,68)"/></clipPath><clipPath id="clip-path-corners-square-color-0-1"><path clip-rule="evenodd" d="M 68 383a 49 49 0 1 0 0.1 0zm 0 14a 35 35 0 1 1 -0.1 0Z" transform="rotate(-90,68,432)"/></clipPath><clipPath id="clip-path-corners-dot-color-0-1"><circle cx="68" cy="432" r="21" transform="rotate(-90,68,432)"/></clipPath></defs><rect x="0" y="0" height="500" width="500" clip-path="url('#clip-path-background-color')" fill="#fff"/><rect x="0" y="0" height="500" width="500" clip-path="url('#clip-path-dot-color')" fill="#18417E"/><rect x="19" y="19" height="98" width="98" clip-path="url('#clip-path-corners-square-color-0-0')" fill="#18417E"/><rect x="47" y="47" height="42" width="42" clip-path="url('#clip-path-corners-dot-color-0-0')" fill="#18417E"/><rect x="383" y="19" height="98" width="98" clip-path="url('#clip-path-corners-square-color-1-0')" fill="#18417E"/><rect x="411" y="47" height="42" width="42" clip-path="url('#clip-path-corners-dot-color-1-0')" fill="#18417E"/><rect x="19" y="383" height="98" width="98" clip-path="url('#clip-path-corners-square-color-0-1')" fill="#18417E"/><rect x="47" y="411" height="42" width="42" clip-path="url('#clip-path-corners-dot-color-0-1')" fill="#18417E"/></svg>