<?xml version="1.0" standalone="no"?>
<svg xmlns="http://www.w3.org/2000/svg" width="300" height="300"><defs><clipPath id="clip-path-dot-color"><circle cx="6" cy="86" r="4" transform="rotate(0,6,86)"/><circle cx="6" cy="94" r="4" transform="rotate(0,6,94)"/><circle cx="6" cy="102" r="4" transform="rotate(0,6,102)"/><circle cx="6" cy="118" r="4" transform="rotate(0,6,118)"/><circle cx="6" cy="150" r="4" transform="rotate(0,6,150)"/><circle cx="6" cy="158" r="4" transform="rotate(0,6,158)"/><circle cx="6" cy="174" r="4" transform="rotate(0,6,174)"/><circle cx="6" cy="182" r="4" transform="rotate(0,6,182)"/><circle cx="6" cy="198" r="4" transform="rotate(0,6,198)"/><circle cx="6" cy="214" r="4" transform="rotate(0,6,214)"/><circle cx="6" cy="222" r="4" transform="rotate(0,6,222)"/><circle cx="6" cy="230" r="4" transform="rotate(0,6,230)"/><circle cx="14" cy="78" r="4" transform="rotate(0,14,78)"/><circle cx="14" cy="110" r="4" transform="rotate(0,14,110)"/><circle cx="14" cy="118" r="4" transform="rotate(0,14,118)"/><circle cx="14" cy="142" r="4" transform="rotate(0,14,142)"/><circle cx="14" cy="150" r="4" transform="rotate(0,14,150)"/><circle cx="14" cy="166" r="4" transform="rotate(0,14,166)"/><circle cx="14" cy="230" r="4" transform="rotate(0,14,230)"/><circle cx="22" cy="70" r="4" transform="rotate(0,22,70)"/><circle cx="22" cy="86" r="4" transform="rotate(0,22,86)"/><circle cx="22" cy="94" r="4" transform="rotate(0,22,94)"/><circle cx="22" cy="102" r="4" transform="rotate(0,22,102)"/><circle cx="22" cy="134" r="4" transform="rotate(0,22,134)"/><circle cx="22" cy="150" r="4" transform="rotate(0,22,150)"/><circle cx="22" cy="166" r="4" transform="rotate(0,22,166)"/><circle cx="22" cy="174" r="4" transform="rotate(0,22,174)"/><circle cx="22" cy="182" r="4" transform="rotate(0,22,182)"/><circle cx="22" cy="190" r="4" transform="rotate(0,22,190)"/><circle cx="22" cy="222" r="4" transform="rotate(0,22,222)"/><circle cx="22" cy="230" r="4" transform="rotate(0,22,230)"/><circle cx="30" cy="78" r="4" transform="rotate(0,30,78)"/><circle cx="30" cy="86" r="4" transform="rotate(0,30,86)"/><circle cx="30" cy="102" r="4" transform="rotate(0,30,102)"/><circle cx="30" cy="118" r="4" transform="rotate(0,30,118)"/><circle cx="30" cy="158" r="4" transform="rotate(0,30,158)"/><circle cx="30" cy="166" r="4" transform="rotate(0,30,166)"/><circle cx="30" cy="190" r="4" transform="rotate(0,30,190)"/><circle cx="30" cy="198" r="4" transform="rotate(0,30,198)"/><circle cx="30" cy="206" r="4" transform="rotate(0,30,206)"/><circle cx="30" cy="214" r="4" transform="rotate(0,30,214)"/><circle cx="30" cy="230" r="4" transform="rotate(0,30,230)"/><circle cx="38" cy="70" r="4" transform="rotate(0,38,70)"/><circle cx="38" cy="78" r="4" transform="rotate(0,38,78)"/><circle cx="38" cy="86" r="4" transform="rotate(0,38,86)"/><circle cx="38" cy="94" r="4" transform="rotate(0,38,94)"/><circle cx="38" cy="102" r="4" transform="rotate(0,38,102)"/><circle cx="38" cy="118" r="4" transform="rotate(0,38,118)"/><circle cx="38" cy="126" r="4" transform="rotate(0,38,126)"/><circle cx="38" cy="150" r="4" transform="rotate(0,38,150)"/><circle cx="38" cy="166" r="4" transform="rotate(0,38,166)"/><circle cx="38" cy="182" r="4" transform="rotate(0,38,182)"/><circle cx="38" cy="190" r="4" transform="rotate(0,38,190)"/><circle cx="38" cy="206" r="4" transform="rotate(0,38,206)"/><circle cx="38" cy="214" r="4" transform="rotate(0,38,214)"/><circle cx="38" cy="222" r="4" transform="rotate(0,38,222)"/><circle cx="46" cy="70" r="4" transform="rotate(0,46,70)"/><circle cx="46" cy="94" r="4" transform="rotate(0,46,94)"/><circle cx="46" cy="102" r="4" transform="rotate(0,46,102)"/><circle cx="46" cy="110" r="4" transform="rotate(0,46,110)"/><circle cx="46" cy="134" r="4" transform="rotate(0,46,134)"/><circle cx="46" cy="142" r="4" transform="rotate(0,46,142)"/><circle cx="46" cy="150" r="4" transform="rotate(0,46,150)"/><circle cx="46" cy="158" r="4" transform="rotate(0,46,158)"/><circle cx="46" cy="182" r="4" transform="rotate(0,46,182)"/><circle cx="46" cy="206" r="4" transform="rotate(0,46,206)"/><circle cx="46" cy="214" r="4" transform="rotate(0,46,214)"/><circle cx="46" cy="230" r="4" transform="rotate(0,46,230)"/><circle cx="54" cy="70" r="4" transform="rotate(0,54,70)"/><circle cx="54" cy="86" r="4" transform="rotate(0,54,86)"/><circle cx="54" cy="102" r="4" transform="rotate(0,54,102)"/><circle cx="54" cy="118" r="4" transform="rotate(0,54,118)"/><circle cx="54" cy="134" r="4" transform="rotate(0,54,134)"/><circle cx="54" cy="150" r="4" transform="rotate(0,54,150)"/><circle cx="54" cy="166" r="4" transform="rotate(0,54,166)"/><circle cx="54" cy="182" r="4" transform="rotate(0,54,182)"/><circle cx="54" cy="198" r="4" transform="rotate(0,54,198)"/><circle cx="54" cy="214" r="4" transform="rotate(0,54,214)"/><circle cx="54" cy="230" r="4" transform="rotate(0,54,230)"/><circle cx="62" cy="78" r="4" transform="rotate(0,62,78)"/><circle cx="62" cy="86" r="4" transform="rotate(0,62,86)"/><circle cx="62" cy="102" r="4" transform="rotate(0,62,102)"/><circle cx="62" cy="110" r="4" transform="rotate(0,62,110)"/><circle cx="62" cy="118" r="4" transform="rotate(0,62,118)"/><circle cx="62" cy="126" r="4" transform="rotate(0,62,126)"/><circle cx="62" cy="150" r="4" transform="rotate(0,62,150)"/><circle cx="62" cy="158" r="4" transform="rotate(0,62,158)"/><circle cx="62" cy="166" r="4" transform="rotate(0,62,166)"/><circle cx="62" cy="174" r="4" transform="rotate(0,62,174)"/><circle cx="62" cy="182" r="4" transform="rotate(0,62,182)"/><circle cx="62" cy="198" r="4" transform="rotate(0,62,198)"/><circle cx="70" cy="14" r="4" transform="rotate(0,70,14)"/><circle cx="70" cy="38" r="4" transform="rotate(0,70,38)"/><circle cx="70" cy="54" r="4" transform="rotate(0,70,54)"/><circle cx="70" cy="70" r="4" transform="rotate(0,70,70)"/><circle cx="70" cy="86" r="4" transform="rotate(0,70,86)"/><circle cx="70" cy="110" r="4" transform="rotate(0,70,110)"/><circle cx="70" cy="142" r="4" transform="rotate(0,70,142)"/><circle cx="70" cy="158" r="4" transform="rotate(0,70,158)"/><circle cx="70" cy="174" r="4" transform="rotate(0,70,174)"/><circle cx="70" cy="182" r="4" transform="rotate(0,70,182)"/><circle cx="70" cy="190" r="4" transform="rotate(0,70,190)"/><circle cx="70" cy="198" r="4" transform="rotate(0,70,198)"/><circle cx="70" cy="206" r="4" transform="rotate(0,70,206)"/><circle cx="70" cy="214" r="4" transform="rotate(0,70,214)"/><circle cx="70" cy="222" r="4" transform="rotate(0,70,222)"/><circle cx="70" cy="230" r="4" transform="rotate(0,70,230)"/><circle cx="70" cy="238" r="4" transform="rotate(0,70,238)"/><circle cx="70" cy="254" r="4" transform="rotate(0,70,254)"/><circle cx="70" cy="262" r="4" transform="rotate(0,70,262)"/><circle cx="70" cy="278" r="4" transform="rotate(0,70,278)"/><circle cx="78" cy="22" r="4" transform="rotate(0,78,22)"/><circle cx="78" cy="30" r="4" transform="rotate(0,78,30)"/><circle cx="78" cy="78" r="4" transform="rotate(0,78,78)"/><circle cx="78" cy="110" r="4" transform="rotate(0,78,110)"/><circle cx="78" cy="118" r="4" transform="rotate(0,78,118)"/><circle cx="78" cy="126" r="4" transform="rotate(0,78,126)"/><circle cx="78" cy="134" r="4" transform="rotate(0,78,134)"/><circle cx="78" cy="158" r="4" transform="rotate(0,78,158)"/><circle cx="78" cy="182" r="4" transform="rotate(0,78,182)"/><circle cx="78" cy="190" r="4" transform="rotate(0,78,190)"/><circle cx="78" cy="214" r="4" transform="rotate(0,78,214)"/><circle cx="78" cy="222" r="4" transform="rotate(0,78,222)"/><circle cx="78" cy="230" r="4" transform="rotate(0,78,230)"/><circle cx="78" cy="238" r="4" transform="rotate(0,78,238)"/><circle cx="78" cy="262" r="4" transform="rotate(0,78,262)"/><circle cx="78" cy="270" r="4" transform="rotate(0,78,270)"/><circle cx="86" cy="6" r="4" transform="rotate(0,86,6)"/><circle cx="86" cy="14" r="4" transform="rotate(0,86,14)"/><circle cx="86" cy="46" r="4" transform="rotate(0,86,46)"/><circle cx="86" cy="54" r="4" transform="rotate(0,86,54)"/><circle cx="86" cy="62" r="4" transform="rotate(0,86,62)"/><circle cx="86" cy="78" r="4" transform="rotate(0,86,78)"/><circle cx="86" cy="86" r="4" transform="rotate(0,86,86)"/><circle cx="86" cy="94" r="4" transform="rotate(0,86,94)"/><circle cx="86" cy="118" r="4" transform="rotate(0,86,118)"/><circle cx="86" cy="126" r="4" transform="rotate(0,86,126)"/><circle cx="86" cy="142" r="4" transform="rotate(0,86,142)"/><circle cx="86" cy="158" r="4" transform="rotate(0,86,158)"/><circle cx="86" cy="166" r="4" transform="rotate(0,86,166)"/><circle cx="86" cy="182" r="4" transform="rotate(0,86,182)"/><circle cx="86" cy="190" r="4" transform="rotate(0,86,190)"/><circle cx="86" cy="198" r="4" transform="rotate(0,86,198)"/><circle cx="86" cy="206" r="4" transform="rotate(0,86,206)"/><circle cx="86" cy="214" r="4" transform="rotate(0,86,214)"/><circle cx="86" cy="222" r="4" transform="rotate(0,86,222)"/><circle cx="86" cy="238" r="4" transform="rotate(0,86,238)"/><circle cx="86" cy="254" r="4" transform="rotate(0,86,254)"/><circle cx="86" cy="262" r="4" transform="rotate(0,86,262)"/><circle cx="94" cy="30" r="4" transform="rotate(0,94,30)"/><circle cx="94" cy="38" r="4" transform="rotate(0,94,38)"/><circle cx="94" cy="46" r="4" transform="rotate(0,94,46)"/><circle cx="94" cy="70" r="4" transform="rotate(0,94,70)"/><circle cx="94" cy="78" r="4" transform="rotate(0,94,78)"/><circle cx="94" cy="102" r="4" transform="rotate(0,94,102)"/><circle cx="94" cy="126" r="4" transform="rotate(0,94,126)"/><circle cx="94" cy="134" r="4" transform="rotate(0,94,134)"/><circle cx="94" cy="158" r="4" transform="rotate(0,94,158)"/><circle cx="94" cy="166" r="4" transform="rotate(0,94,166)"/><circle cx="94" cy="174" r="4" transform="rotate(0,94,174)"/><circle cx="94" cy="182" r="4" transform="rotate(0,94,182)"/><circle cx="94" cy="198" r="4" transform="rotate(0,94,198)"/><circle cx="94" cy="214" r="4" transform="rotate(0,94,214)"/><circle cx="94" cy="238" r="4" transform="rotate(0,94,238)"/><circle cx="94" cy="262" r="4" transform="rotate(0,94,262)"/><circle cx="94" cy="278" r="4" transform="rotate(0,94,278)"/><circle cx="102" cy="6" r="4" transform="rotate(0,102,6)"/><circle cx="102" cy="14" r="4" transform="rotate(0,102,14)"/><circle cx="102" cy="38" r="4" transform="rotate(0,102,38)"/><circle cx="102" cy="54" r="4" transform="rotate(0,102,54)"/><circle cx="102" cy="78" r="4" transform="rotate(0,102,78)"/><circle cx="102" cy="86" r="4" transform="rotate(0,102,86)"/><circle cx="102" cy="94" r="4" transform="rotate(0,102,94)"/><circle cx="102" cy="102" r="4" transform="rotate(0,102,102)"/><circle cx="102" cy="126" r="4" transform="rotate(0,102,126)"/><circle cx="102" cy="134" r="4" transform="rotate(0,102,134)"/><circle cx="102" cy="158" r="4" transform="rotate(0,102,158)"/><circle cx="102" cy="174" r="4" transform="rotate(0,102,174)"/><circle cx="102" cy="182" r="4" transform="rotate(0,102,182)"/><circle cx="102" cy="190" r="4" transform="rotate(0,102,190)"/><circle cx="102" cy="198" r="4" transform="rotate(0,102,198)"/><circle cx="102" cy="222" r="4" transform="rotate(0,102,222)"/><circle cx="102" cy="238" r="4" transform="rotate(0,102,238)"/><circle cx="102" cy="246" r="4" transform="rotate(0,102,246)"/><circle cx="102" cy="254" r="4" transform="rotate(0,102,254)"/><circle cx="102" cy="278" r="4" transform="rotate(0,102,278)"/><circle cx="102" cy="294" r="4" transform="rotate(0,102,294)"/><circle cx="110" cy="6" r="4" transform="rotate(0,110,6)"/><circle cx="110" cy="14" r="4" transform="rotate(0,110,14)"/><circle cx="110" cy="46" r="4" transform="rotate(0,110,46)"/><circle cx="110" cy="62" r="4" transform="rotate(0,110,62)"/><circle cx="110" cy="78" r="4" transform="rotate(0,110,78)"/><circle cx="110" cy="94" r="4" transform="rotate(0,110,94)"/><circle cx="110" cy="110" r="4" transform="rotate(0,110,110)"/><circle cx="110" cy="126" r="4" transform="rotate(0,110,126)"/><circle cx="110" cy="142" r="4" transform="rotate(0,110,142)"/><circle cx="110" cy="150" r="4" transform="rotate(0,110,150)"/><circle cx="110" cy="166" r="4" transform="rotate(0,110,166)"/><circle cx="110" cy="174" r="4" transform="rotate(0,110,174)"/><circle cx="110" cy="190" r="4" transform="rotate(0,110,190)"/><circle cx="110" cy="206" r="4" transform="rotate(0,110,206)"/><circle cx="110" cy="214" r="4" transform="rotate(0,110,214)"/><circle cx="110" cy="222" r="4" transform="rotate(0,110,222)"/><circle cx="110" cy="230" r="4" transform="rotate(0,110,230)"/><circle cx="110" cy="238" r="4" transform="rotate(0,110,238)"/><circle cx="110" cy="262" r="4" transform="rotate(0,110,262)"/><circle cx="110" cy="278" r="4" transform="rotate(0,110,278)"/><circle cx="118" cy="6" r="4" transform="rotate(0,118,6)"/><circle cx="118" cy="22" r="4" transform="rotate(0,118,22)"/><circle cx="118" cy="30" r="4" transform="rotate(0,118,30)"/><circle cx="118" cy="38" r="4" transform="rotate(0,118,38)"/><circle cx="118" cy="54" r="4" transform="rotate(0,118,54)"/><circle cx="118" cy="62" r="4" transform="rotate(0,118,62)"/><circle cx="118" cy="78" r="4" transform="rotate(0,118,78)"/><circle cx="118" cy="118" r="4" transform="rotate(0,118,118)"/><circle cx="118" cy="150" r="4" transform="rotate(0,118,150)"/><circle cx="118" cy="166" r="4" transform="rotate(0,118,166)"/><circle cx="118" cy="190" r="4" transform="rotate(0,118,190)"/><circle cx="118" cy="214" r="4" transform="rotate(0,118,214)"/><circle cx="118" cy="222" r="4" transform="rotate(0,118,222)"/><circle cx="118" cy="246" r="4" transform="rotate(0,118,246)"/><circle cx="118" cy="254" r="4" transform="rotate(0,118,254)"/><circle cx="118" cy="262" r="4" transform="rotate(0,118,262)"/><circle cx="118" cy="270" r="4" transform="rotate(0,118,270)"/><circle cx="118" cy="278" r="4" transform="rotate(0,118,278)"/><circle cx="126" cy="14" r="4" transform="rotate(0,126,14)"/><circle cx="126" cy="30" r="4" transform="rotate(0,126,30)"/><circle cx="126" cy="38" r="4" transform="rotate(0,126,38)"/><circle cx="126" cy="62" r="4" transform="rotate(0,126,62)"/><circle cx="126" cy="70" r="4" transform="rotate(0,126,70)"/><circle cx="126" cy="94" r="4" transform="rotate(0,126,94)"/><circle cx="126" cy="110" r="4" transform="rotate(0,126,110)"/><circle cx="126" cy="118" r="4" transform="rotate(0,126,118)"/><circle cx="126" cy="142" r="4" transform="rotate(0,126,142)"/><circle cx="126" cy="158" r="4" transform="rotate(0,126,158)"/><circle cx="126" cy="166" r="4" transform="rotate(0,126,166)"/><circle cx="126" cy="182" r="4" transform="rotate(0,126,182)"/><circle cx="126" cy="190" r="4" transform="rotate(0,126,190)"/><circle cx="126" cy="198" r="4" transform="rotate(0,126,198)"/><circle cx="126" cy="214" r="4" transform="rotate(0,126,214)"/><circle cx="126" cy="222" r="4" transform="rotate(0,126,222)"/><circle cx="126" cy="246" r="4" transform="rotate(0,126,246)"/><circle cx="126" cy="278" r="4" transform="rotate(0,126,278)"/><circle cx="126" cy="286" r="4" transform="rotate(0,126,286)"/><circle cx="126" cy="294" r="4" transform="rotate(0,126,294)"/><circle cx="134" cy="14" r="4" transform="rotate(0,134,14)"/><circle cx="134" cy="22" r="4" transform="rotate(0,134,22)"/><circle cx="134" cy="54" r="4" transform="rotate(0,134,54)"/><circle cx="134" cy="78" r="4" transform="rotate(0,134,78)"/><circle cx="134" cy="86" r="4" transform="rotate(0,134,86)"/><circle cx="134" cy="94" r="4" transform="rotate(0,134,94)"/><circle cx="134" cy="102" r="4" transform="rotate(0,134,102)"/><circle cx="134" cy="118" r="4" transform="rotate(0,134,118)"/><circle cx="134" cy="142" r="4" transform="rotate(0,134,142)"/><circle cx="134" cy="158" r="4" transform="rotate(0,134,158)"/><circle cx="134" cy="166" r="4" transform="rotate(0,134,166)"/><circle cx="134" cy="182" r="4" transform="rotate(0,134,182)"/><circle cx="134" cy="198" r="4" transform="rotate(0,134,198)"/><circle cx="134" cy="222" r="4" transform="rotate(0,134,222)"/><circle cx="134" cy="238" r="4" transform="rotate(0,134,238)"/><circle cx="134" cy="246" r="4" transform="rotate(0,134,246)"/><circle cx="134" cy="254" r="4" transform="rotate(0,134,254)"/><circle cx="134" cy="270" r="4" transform="rotate(0,134,270)"/><circle cx="134" cy="278" r="4" transform="rotate(0,134,278)"/><circle cx="134" cy="286" r="4" transform="rotate(0,134,286)"/><circle cx="142" cy="6" r="4" transform="rotate(0,142,6)"/><circle cx="142" cy="14" r="4" transform="rotate(0,142,14)"/><circle cx="142" cy="22" r="4" transform="rotate(0,142,22)"/><circle cx="142" cy="30" r="4" transform="rotate(0,142,30)"/><circle cx="142" cy="38" r="4" transform="rotate(0,142,38)"/><circle cx="142" cy="70" r="4" transform="rotate(0,142,70)"/><circle cx="142" cy="78" r="4" transform="rotate(0,142,78)"/><circle cx="142" cy="102" r="4" transform="rotate(0,142,102)"/><circle cx="142" cy="110" r="4" transform="rotate(0,142,110)"/><circle cx="142" cy="134" r="4" transform="rotate(0,142,134)"/><circle cx="142" cy="166" r="4" transform="rotate(0,142,166)"/><circle cx="142" cy="206" r="4" transform="rotate(0,142,206)"/><circle cx="142" cy="222" r="4" transform="rotate(0,142,222)"/><circle cx="142" cy="230" r="4" transform="rotate(0,142,230)"/><circle cx="142" cy="254" r="4" transform="rotate(0,142,254)"/><circle cx="142" cy="262" r="4" transform="rotate(0,142,262)"/><circle cx="150" cy="22" r="4" transform="rotate(0,150,22)"/><circle cx="150" cy="46" r="4" transform="rotate(0,150,46)"/><circle cx="150" cy="54" r="4" transform="rotate(0,150,54)"/><circle cx="150" cy="62" r="4" transform="rotate(0,150,62)"/><circle cx="150" cy="102" r="4" transform="rotate(0,150,102)"/><circle cx="150" cy="110" r="4" transform="rotate(0,150,110)"/><circle cx="150" cy="118" r="4" transform="rotate(0,150,118)"/><circle cx="150" cy="142" r="4" transform="rotate(0,150,142)"/><circle cx="150" cy="174" r="4" transform="rotate(0,150,174)"/><circle cx="150" cy="214" r="4" transform="rotate(0,150,214)"/><circle cx="150" cy="222" r="4" transform="rotate(0,150,222)"/><circle cx="150" cy="238" r="4" transform="rotate(0,150,238)"/><circle cx="150" cy="254" r="4" transform="rotate(0,150,254)"/><circle cx="158" cy="6" r="4" transform="rotate(0,158,6)"/><circle cx="158" cy="22" r="4" transform="rotate(0,158,22)"/><circle cx="158" cy="38" r="4" transform="rotate(0,158,38)"/><circle cx="158" cy="46" r="4" transform="rotate(0,158,46)"/><circle cx="158" cy="70" r="4" transform="rotate(0,158,70)"/><circle cx="158" cy="78" r="4" transform="rotate(0,158,78)"/><circle cx="158" cy="94" r="4" transform="rotate(0,158,94)"/><circle cx="158" cy="110" r="4" transform="rotate(0,158,110)"/><circle cx="158" cy="118" r="4" transform="rotate(0,158,118)"/><circle cx="158" cy="126" r="4" transform="rotate(0,158,126)"/><circle cx="158" cy="142" r="4" transform="rotate(0,158,142)"/><circle cx="158" cy="150" r="4" transform="rotate(0,158,150)"/><circle cx="158" cy="158" r="4" transform="rotate(0,158,158)"/><circle cx="158" cy="166" r="4" transform="rotate(0,158,166)"/><circle cx="158" cy="174" r="4" transform="rotate(0,158,174)"/><circle cx="158" cy="198" r="4" transform="rotate(0,158,198)"/><circle cx="158" cy="214" r="4" transform="rotate(0,158,214)"/><circle cx="158" cy="230" r="4" transform="rotate(0,158,230)"/><circle cx="158" cy="254" r="4" transform="rotate(0,158,254)"/><circle cx="158" cy="262" r="4" transform="rotate(0,158,262)"/><circle cx="158" cy="278" r="4" transform="rotate(0,158,278)"/><circle cx="166" cy="6" r="4" transform="rotate(0,166,6)"/><circle cx="166" cy="14" r="4" transform="rotate(0,166,14)"/><circle cx="166" cy="22" r="4" transform="rotate(0,166,22)"/><circle cx="166" cy="54" r="4" transform="rotate(0,166,54)"/><circle cx="166" cy="62" r="4" transform="rotate(0,166,62)"/><circle cx="166" cy="70" r="4" transform="rotate(0,166,70)"/><circle cx="166" cy="94" r="4" transform="rotate(0,166,94)"/><circle cx="166" cy="110" r="4" transform="rotate(0,166,110)"/><circle cx="166" cy="134" r="4" transform="rotate(0,166,134)"/><circle cx="166" cy="174" r="4" transform="rotate(0,166,174)"/><circle cx="166" cy="182" r="4" transform="rotate(0,166,182)"/><circle cx="166" cy="190" r="4" transform="rotate(0,166,190)"/><circle cx="166" cy="198" r="4" transform="rotate(0,166,198)"/><circle cx="166" cy="238" r="4" transform="rotate(0,166,238)"/><circle cx="166" cy="246" r="4" transform="rotate(0,166,246)"/><circle cx="166" cy="278" r="4" transform="rotate(0,166,278)"/><circle cx="166" cy="286" r="4" transform="rotate(0,166,286)"/><circle cx="166" cy="294" r="4" transform="rotate(0,166,294)"/><circle cx="174" cy="6" r="4" transform="rotate(0,174,6)"/><circle cx="174" cy="14" r="4" transform="rotate(0,174,14)"/><circle cx="174" cy="38" r="4" transform="rotate(0,174,38)"/><circle cx="174" cy="46" r="4" transform="rotate(0,174,46)"/><circle cx="174" cy="78" r="4" transform="rotate(0,174,78)"/><circle cx="174" cy="110" r="4" transform="rotate(0,174,110)"/><circle cx="174" cy="118" r="4" transform="rotate(0,174,118)"/><circle cx="174" cy="150" r="4" transform="rotate(0,174,150)"/><circle cx="174" cy="158" r="4" transform="rotate(0,174,158)"/><circle cx="174" cy="174" r="4" transform="rotate(0,174,174)"/><circle cx="174" cy="190" r="4" transform="rotate(0,174,190)"/><circle cx="174" cy="222" r="4" transform="rotate(0,174,222)"/><circle cx="174" cy="262" r="4" transform="rotate(0,174,262)"/><circle cx="174" cy="270" r="4" transform="rotate(0,174,270)"/><circle cx="174" cy="278" r="4" transform="rotate(0,174,278)"/><circle cx="174" cy="286" r="4" transform="rotate(0,174,286)"/><circle cx="182" cy="14" r="4" transform="rotate(0,182,14)"/><circle cx="182" cy="30" r="4" transform="rotate(0,182,30)"/><circle cx="182" cy="38" r="4" transform="rotate(0,182,38)"/><circle cx="182" cy="46" r="4" transform="rotate(0,182,46)"/><circle cx="182" cy="54" r="4" transform="rotate(0,182,54)"/><circle cx="182" cy="86" r="4" transform="rotate(0,182,86)"/><circle cx="182" cy="94" r="4" transform="rotate(0,182,94)"/><circle cx="182" cy="110" r="4" transform="rotate(0,182,110)"/><circle cx="182" cy="134" r="4" transform="rotate(0,182,134)"/><circle cx="182" cy="150" r="4" transform="rotate(0,182,150)"/><circle cx="182" cy="174" r="4" transform="rotate(0,182,174)"/><circle cx="182" cy="182" r="4" transform="rotate(0,182,182)"/><circle cx="182" cy="190" r="4" transform="rotate(0,182,190)"/><circle cx="182" cy="198" r="4" transform="rotate(0,182,198)"/><circle cx="182" cy="206" r="4" transform="rotate(0,182,206)"/><circle cx="182" cy="214" r="4" transform="rotate(0,182,214)"/><circle cx="182" cy="222" r="4" transform="rotate(0,182,222)"/><circle cx="182" cy="230" r="4" transform="rotate(0,182,230)"/><circle cx="182" cy="238" r="4" transform="rotate(0,182,238)"/><circle cx="182" cy="278" r="4" transform="rotate(0,182,278)"/><circle cx="190" cy="6" r="4" transform="rotate(0,190,6)"/><circle cx="190" cy="22" r="4" transform="rotate(0,190,22)"/><circle cx="190" cy="30" r="4" transform="rotate(0,190,30)"/><circle cx="190" cy="46" r="4" transform="rotate(0,190,46)"/><circle cx="190" cy="62" r="4" transform="rotate(0,190,62)"/><circle cx="190" cy="86" r="4" transform="rotate(0,190,86)"/><circle cx="190" cy="94" r="4" transform="rotate(0,190,94)"/><circle cx="190" cy="110" r="4" transform="rotate(0,190,110)"/><circle cx="190" cy="126" r="4" transform="rotate(0,190,126)"/><circle cx="190" cy="166" r="4" transform="rotate(0,190,166)"/><circle cx="190" cy="174" r="4" transform="rotate(0,190,174)"/><circle cx="190" cy="198" r="4" transform="rotate(0,190,198)"/><circle cx="190" cy="206" r="4" transform="rotate(0,190,206)"/><circle cx="190" cy="230" r="4" transform="rotate(0,190,230)"/><circle cx="190" cy="246" r="4" transform="rotate(0,190,246)"/><circle cx="190" cy="254" r="4" transform="rotate(0,190,254)"/><circle cx="190" cy="278" r="4" transform="rotate(0,190,278)"/><circle cx="198" cy="22" r="4" transform="rotate(0,198,22)"/><circle cx="198" cy="30" r="4" transform="rotate(0,198,30)"/><circle cx="198" cy="54" r="4" transform="rotate(0,198,54)"/><circle cx="198" cy="110" r="4" transform="rotate(0,198,110)"/><circle cx="198" cy="118" r="4" transform="rotate(0,198,118)"/><circle cx="198" cy="134" r="4" transform="rotate(0,198,134)"/><circle cx="198" cy="142" r="4" transform="rotate(0,198,142)"/><circle cx="198" cy="174" r="4" transform="rotate(0,198,174)"/><circle cx="198" cy="182" r="4" transform="rotate(0,198,182)"/><circle cx="198" cy="198" r="4" transform="rotate(0,198,198)"/><circle cx="198" cy="206" r="4" transform="rotate(0,198,206)"/><circle cx="198" cy="222" r="4" transform="rotate(0,198,222)"/><circle cx="198" cy="238" r="4" transform="rotate(0,198,238)"/><circle cx="198" cy="246" r="4" transform="rotate(0,198,246)"/><circle cx="198" cy="254" r="4" transform="rotate(0,198,254)"/><circle cx="198" cy="278" r="4" transform="rotate(0,198,278)"/><circle cx="198" cy="286" r="4" transform="rotate(0,198,286)"/><circle cx="206" cy="6" r="4" transform="rotate(0,206,6)"/><circle cx="206" cy="22" r="4" transform="rotate(0,206,22)"/><circle cx="206" cy="38" r="4" transform="rotate(0,206,38)"/><circle cx="206" cy="62" r="4" transform="rotate(0,206,62)"/><circle cx="206" cy="94" r="4" transform="rotate(0,206,94)"/><circle cx="206" cy="118" r="4" transform="rotate(0,206,118)"/><circle cx="206" cy="126" r="4" transform="rotate(0,206,126)"/><circle cx="206" cy="150" r="4" transform="rotate(0,206,150)"/><circle cx="206" cy="166" r="4" transform="rotate(0,206,166)"/><circle cx="206" cy="174" r="4" transform="rotate(0,206,174)"/><circle cx="206" cy="190" r="4" transform="rotate(0,206,190)"/><circle cx="206" cy="198" r="4" transform="rotate(0,206,198)"/><circle cx="206" cy="206" r="4" transform="rotate(0,206,206)"/><circle cx="206" cy="214" r="4" transform="rotate(0,206,214)"/><circle cx="206" cy="222" r="4" transform="rotate(0,206,222)"/><circle cx="206" cy="230" r="4" transform="rotate(0,206,230)"/><circle cx="206" cy="262" r="4" transform="rotate(0,206,262)"/><circle cx="206" cy="270" r="4" transform="rotate(0,206,270)"/><circle cx="206" cy="278" r="4" transform="rotate(0,206,278)"/><circle cx="214" cy="54" r="4" transform="rotate(0,214,54)"/><circle cx="214" cy="62" r="4" transform="rotate(0,214,62)"/><circle cx="214" cy="70" r="4" transform="rotate(0,214,70)"/><circle cx="214" cy="86" r="4" transform="rotate(0,214,86)"/><circle cx="214" cy="102" r="4" transform="rotate(0,214,102)"/><circle cx="214" cy="110" r="4" transform="rotate(0,214,110)"/><circle cx="214" cy="118" r="4" transform="rotate(0,214,118)"/><circle cx="214" cy="134" r="4" transform="rotate(0,214,134)"/><circle cx="214" cy="142" r="4" transform="rotate(0,214,142)"/><circle cx="214" cy="182" r="4" transform="rotate(0,214,182)"/><circle cx="214" cy="190" r="4" transform="rotate(0,214,190)"/><circle cx="214" cy="198" r="4" transform="rotate(0,214,198)"/><circle cx="214" cy="206" r="4" transform="rotate(0,214,206)"/><circle cx="214" cy="214" r="4" transform="rotate(0,214,214)"/><circle cx="214" cy="222" r="4" transform="rotate(0,214,222)"/><circle cx="214" cy="230" r="4" transform="rotate(0,214,230)"/><circle cx="214" cy="238" r="4" transform="rotate(0,214,238)"/><circle cx="214" cy="262" r="4" transform="rotate(0,214,262)"/><circle cx="222" cy="30" r="4" transform="rotate(0,222,30)"/><circle cx="222" cy="46" r="4" transform="rotate(0,222,46)"/><circle cx="222" cy="62" r="4" transform="rotate(0,222,62)"/><circle cx="222" cy="70" r="4" transform="rotate(0,222,70)"/><circle cx="222" cy="86" r="4" transform="rotate(0,222,86)"/><circle cx="222" cy="102" r="4" transform="rotate(0,222,102)"/><circle cx="222" cy="110" r="4" transform="rotate(0,222,110)"/><circle cx="222" cy="126" r="4" transform="rotate(0,222,126)"/><circle cx="222" cy="142" r="4" transform="rotate(0,222,142)"/><circle cx="222" cy="150" r="4" transform="rotate(0,222,150)"/><circle cx="222" cy="174" r="4" transform="rotate(0,222,174)"/><circle cx="222" cy="190" r="4" transform="rotate(0,222,190)"/><circle cx="222" cy="198" r="4" transform="rotate(0,222,198)"/><circle cx="222" cy="214" r="4" transform="rotate(0,222,214)"/><circle cx="222" cy="222" r="4" transform="rotate(0,222,222)"/><circle cx="222" cy="230" r="4" transform="rotate(0,222,230)"/><circle cx="222" cy="246" r="4" transform="rotate(0,222,246)"/><circle cx="222" cy="278" r="4" transform="rotate(0,222,278)"/><circle cx="222" cy="286" r="4" transform="rotate(0,222,286)"/><circle cx="222" cy="294" r="4" transform="rotate(0,222,294)"/><circle cx="230" cy="6" r="4" transform="rotate(0,230,6)"/><circle cx="230" cy="14" r="4" transform="rotate(0,230,14)"/><circle cx="230" cy="38" r="4" transform="rotate(0,230,38)"/><circle cx="230" cy="54" r="4" transform="rotate(0,230,54)"/><circle cx="230" cy="78" r="4" transform="rotate(0,230,78)"/><circle cx="230" cy="86" r="4" transform="rotate(0,230,86)"/><circle cx="230" cy="102" r="4" transform="rotate(0,230,102)"/><circle cx="230" cy="110" r="4" transform="rotate(0,230,110)"/><circle cx="230" cy="126" r="4" transform="rotate(0,230,126)"/><circle cx="230" cy="142" r="4" transform="rotate(0,230,142)"/><circle cx="230" cy="150" r="4" transform="rotate(0,230,150)"/><circle cx="230" cy="158" r="4" transform="rotate(0,230,158)"/><circle cx="230" cy="166" r="4" transform="rotate(0,230,166)"/><circle cx="230" cy="174" r="4" transform="rotate(0,230,174)"/><circle cx="230" cy="182" r="4" transform="rotate(0,230,182)"/><circle cx="230" cy="222" r="4" transform="rotate(0,230,222)"/><circle cx="230" cy="230" r="4" transform="rotate(0,230,230)"/><circle cx="230" cy="238" r="4" transform="rotate(0,230,238)"/><circle cx="230" cy="246" r="4" transform="rotate(0,230,246)"/><circle cx="230" cy="254" r="4" transform="rotate(0,230,254)"/><circle cx="230" cy="262" r="4" transform="rotate(0,230,262)"/><circle cx="230" cy="270" r="4" transform="rotate(0,230,270)"/><circle cx="230" cy="278" r="4" transform="rotate(0,230,278)"/><circle cx="230" cy="286" r="4" transform="rotate(0,230,286)"/><circle cx="238" cy="70" r="4" transform="rotate(0,238,70)"/><circle cx="238" cy="78" r="4" transform="rotate(0,238,78)"/><circle cx="238" cy="102" r="4" transform="rotate(0,238,102)"/><circle cx="238" cy="118" r="4" transform="rotate(0,238,118)"/><circle cx="238" cy="150" r="4" transform="rotate(0,238,150)"/><circle cx="238" cy="166" r="4" transform="rotate(0,238,166)"/><circle cx="238" cy="182" r="4" transform="rotate(0,238,182)"/><circle cx="238" cy="190" r="4" transform="rotate(0,238,190)"/><circle cx="238" cy="206" r="4" transform="rotate(0,238,206)"/><circle cx="238" cy="214" r="4" transform="rotate(0,238,214)"/><circle cx="238" cy="230" r="4" transform="rotate(0,238,230)"/><circle cx="238" cy="262" r="4" transform="rotate(0,238,262)"/><circle cx="238" cy="270" r="4" transform="rotate(0,238,270)"/><circle cx="246" cy="86" r="4" transform="rotate(0,246,86)"/><circle cx="246" cy="94" r="4" transform="rotate(0,246,94)"/><circle cx="246" cy="150" r="4" transform="rotate(0,246,150)"/><circle cx="246" cy="174" r="4" transform="rotate(0,246,174)"/><circle cx="246" cy="182" r="4" transform="rotate(0,246,182)"/><circle cx="246" cy="190" r="4" transform="rotate(0,246,190)"/><circle cx="246" cy="198" r="4" transform="rotate(0,246,198)"/><circle cx="246" cy="230" r="4" transform="rotate(0,246,230)"/><circle cx="246" cy="246" r="4" transform="rotate(0,246,246)"/><circle cx="246" cy="262" r="4" transform="rotate(0,246,262)"/><circle cx="246" cy="270" r="4" transform="rotate(0,246,270)"/><circle cx="246" cy="278" r="4" transform="rotate(0,246,278)"/><circle cx="246" cy="286" r="4" transform="rotate(0,246,286)"/><circle cx="254" cy="94" r="4" transform="rotate(0,254,94)"/><circle cx="254" cy="102" r="4" transform="rotate(0,254,102)"/><circle cx="254" cy="134" r="4" transform="rotate(0,254,134)"/><circle cx="254" cy="142" r="4" transform="rotate(0,254,142)"/><circle cx="254" cy="150" r="4" transform="rotate(0,254,150)"/><circle cx="254" cy="158" r="4" transform="rotate(0,254,158)"/><circle cx="254" cy="166" r="4" transform="rotate(0,254,166)"/><circle cx="254" cy="174" r="4" transform="rotate(0,254,174)"/><circle cx="254" cy="190" r="4" transform="rotate(0,254,190)"/><circle cx="254" cy="222" r="4" transform="rotate(0,254,222)"/><circle cx="254" cy="230" r="4" transform="rotate(0,254,230)"/><circle cx="254" cy="262" r="4" transform="rotate(0,254,262)"/><circle cx="254" cy="278" r="4" transform="rotate(0,254,278)"/><circle cx="254" cy="286" r="4" transform="rotate(0,254,286)"/><circle cx="254" cy="294" r="4" transform="rotate(0,254,294)"/><circle cx="262" cy="70" r="4" transform="rotate(0,262,70)"/><circle cx="262" cy="78" r="4" transform="rotate(0,262,78)"/><circle cx="262" cy="86" r="4" transform="rotate(0,262,86)"/><circle cx="262" cy="94" r="4" transform="rotate(0,262,94)"/><circle cx="262" cy="126" r="4" transform="rotate(0,262,126)"/><circle cx="262" cy="134" r="4" transform="rotate(0,262,134)"/><circle cx="262" cy="158" r="4" transform="rotate(0,262,158)"/><circle cx="262" cy="166" r="4" transform="rotate(0,262,166)"/><circle cx="262" cy="190" r="4" transform="rotate(0,262,190)"/><circle cx="262" cy="230" r="4" transform="rotate(0,262,230)"/><circle cx="262" cy="238" r="4" transform="rotate(0,262,238)"/><circle cx="262" cy="246" r="4" transform="rotate(0,262,246)"/><circle cx="262" cy="254" r="4" transform="rotate(0,262,254)"/><circle cx="262" cy="262" r="4" transform="rotate(0,262,262)"/><circle cx="262" cy="270" r="4" transform="rotate(0,262,270)"/><circle cx="262" cy="278" r="4" transform="rotate(0,262,278)"/><circle cx="262" cy="294" r="4" transform="rotate(0,262,294)"/><circle cx="270" cy="94" r="4" transform="rotate(0,270,94)"/><circle cx="270" cy="110" r="4" transform="rotate(0,270,110)"/><circle cx="270" cy="126" r="4" transform="rotate(0,270,126)"/><circle cx="270" cy="134" r="4" transform="rotate(0,270,134)"/><circle cx="270" cy="142" r="4" transform="rotate(0,270,142)"/><circle cx="270" cy="158" r="4" transform="rotate(0,270,158)"/><circle cx="270" cy="182" r="4" transform="rotate(0,270,182)"/><circle cx="270" cy="198" r="4" transform="rotate(0,270,198)"/><circle cx="270" cy="206" r="4" transform="rotate(0,270,206)"/><circle cx="270" cy="214" r="4" transform="rotate(0,270,214)"/><circle cx="270" cy="246" r="4" transform="rotate(0,270,246)"/><circle cx="270" cy="254" r="4" transform="rotate(0,270,254)"/><circle cx="270" cy="270" r="4" transform="rotate(0,270,270)"/><circle cx="270" cy="278" r="4" transform="rotate(0,270,278)"/><circle cx="270" cy="286" r="4" transform="rotate(0,270,286)"/><circle cx="278" cy="78" r="4" transform="rotate(0,278,78)"/><circle cx="278" cy="102" r="4" transform="rotate(0,278,102)"/><circle cx="278" cy="110" r="4" transform="rotate(0,278,110)"/><circle cx="278" cy="118" r="4" transform="rotate(0,278,118)"/><circle cx="278" cy="134" r="4" transform="rotate(0,278,134)"/><circle cx="278" cy="158" r="4" transform="rotate(0,278,158)"/><circle cx="278" cy="182" r="4" transform="rotate(0,278,182)"/><circle cx="278" cy="190" r="4" transform="rotate(0,278,190)"/><circle cx="278" cy="198" r="4" transform="rotate(0,278,198)"/><circle cx="278" cy="214" r="4" transform="rotate(0,278,214)"/><circle cx="278" cy="246" r="4" transform="rotate(0,278,246)"/><circle cx="278" cy="254" r="4" transform="rotate(0,278,254)"/><circle cx="278" cy="286" r="4" transform="rotate(0,278,286)"/><circle cx="286" cy="70" r="4" transform="rotate(0,286,70)"/><circle cx="286" cy="86" r="4" transform="rotate(0,286,86)"/><circle cx="286" cy="102" r="4" transform="rotate(0,286,102)"/><circle cx="286" cy="110" r="4" transform="rotate(0,286,110)"/><circle cx="286" cy="118" r="4" transform="rotate(0,286,118)"/><circle cx="286" cy="126" r="4" transform="rotate(0,286,126)"/><circle cx="286" cy="158" r="4" transform="rotate(0,286,158)"/><circle cx="286" cy="166" r="4" transform="rotate(0,286,166)"/><circle cx="286" cy="174" r="4" transform="rotate(0,286,174)"/><circle cx="286" cy="190" r="4" transform="rotate(0,286,190)"/><circle cx="286" cy="238" r="4" transform="rotate(0,286,238)"/><circle cx="286" cy="254" r="4" transform="rotate(0,286,254)"/><circle cx="286" cy="278" r="4" transform="rotate(0,286,278)"/><circle cx="286" cy="286" r="4" transform="rotate(0,286,286)"/><circle cx="294" cy="94" r="4" transform="rotate(0,294,94)"/><circle cx="294" cy="102" r="4" transform="rotate(0,294,102)"/><circle cx="294" cy="110" r="4" transform="rotate(0,294,110)"/><circle cx="294" cy="118" r="4" transform="rotate(0,294,118)"/><circle cx="294" cy="126" r="4" transform="rotate(0,294,126)"/><circle cx="294" cy="150" r="4" transform="rotate(0,294,150)"/><circle cx="294" cy="166" r="4" transform="rotate(0,294,166)"/><circle cx="294" cy="174" r="4" transform="rotate(0,294,174)"/><circle cx="294" cy="222" r="4" transform="rotate(0,294,222)"/><circle cx="294" cy="254" r="4" transform="rotate(0,294,254)"/><circle cx="294" cy="278" r="4" transform="rotate(0,294,278)"/><circle cx="294" cy="286" r="4" transform="rotate(0,294,286)"/><circle cx="294" cy="294" r="4" transform="rotate(0,294,294)"/><path clip-rule="evenodd" d="M 2 22v 16a 20 20, 0, 0, 0, 20 20h 16a 20 20, 0, 0, 0, 20 -20v -16a 20 20, 0, 0, 0, -20 -20h -16a 20 20, 0, 0, 0, -20 20M 22 10h 16a 12 12, 0, 0, 1, 12 12v 16a 12 12, 0, 0, 1, -12 12h -16a 12 12, 0, 0, 1, -12 -12v -16a 12 12, 0, 0, 1, 12 -12" transform="rotate(0,30,30)"/><circle cx="22" cy="22" r="4" transform="rotate(0,22,22)"/><circle cx="22" cy="30" r="4" transform="rotate(0,22,30)"/><circle cx="22" cy="38" r="4" transform="rotate(0,22,38)"/><circle cx="30" cy="22" r="4" transform="rotate(0,30,22)"/><circle cx="30" cy="30" r="4" transform="rotate(0,30,30)"/><circle cx="30" cy="38" r="4" transform="rotate(0,30,38)"/><circle cx="38" cy="22" r="4" transform="rotate(0,38,22)"/><circle cx="38" cy="30" r="4" transform="rotate(0,38,30)"/><circle cx="38" cy="38" r="4" transform="rotate(0,38,38)"/><path clip-rule="evenodd" d="M 242 22v 16a 20 20, 0, 0, 0, 20 20h 16a 20 20, 0, 0, 0, 20 -20v -16a 20 20, 0, 0, 0, -20 -20h -16a 20 20, 0, 0, 0, -20 20M 262 10h 16a 12 12, 0, 0, 1, 12 12v 16a 12 12, 0, 0, 1, -12 12h -16a 12 12, 0, 0, 1, -12 -12v -16a 12 12, 0, 0, 1, 12 -12" transform="rotate(90,270,30)"/><circle cx="262" cy="22" r="4" transform="rotate(0,262,22)"/><circle cx="262" cy="30" r="4" transform="rotate(0,262,30)"/><circle cx="262" cy="38" r="4" transform="rotate(0,262,38)"/><circle cx="270" cy="22" r="4" transform="rotate(0,270,22)"/><circle cx="270" cy="30" r="4" transform="rotate(0,270,30)"/><circle cx="270" cy="38" r="4" transform="rotate(0,270,38)"/><circle cx="278" cy="22" r="4" transform="rotate(0,278,22)"/><circle cx="278" cy="30" r="4" transform="rotate(0,278,30)"/><circle cx="278" cy="38" r="4" transform="rotate(0,278,38)"/><path clip-rule="evenodd" d="M 2 262v 16a 20 20, 0, 0, 0, 20 20h 16a 20 20, 0, 0, 0, 20 -20v -16a 20 20, 0, 0, 0, -20 -20h -16a 20 20, 0, 0, 0, -20 20M 22 250h 16a 12 12, 0, 0, 1, 12 12v 16a 12 12, 0, 0, 1, -12 12h -16a 12 12, 0, 0, 1, -12 -12v -16a 12 12, 0, 0, 1, 12 -12" transform="rotate(-90,30,270)"/><circle cx="22" cy="262" r="4" transform="rotate(0,22,262)"/><circle cx="22" cy="270" r="4" transform="rotate(0,22,270)"/><circle cx="22" cy="278" r="4" transform="rotate(0,22,278)"/><circle cx="30" cy="262" r="4" transform="rotate(0,30,262)"/><circle cx="30" cy="270" r="4" transform="rotate(0,30,270)"/><circle cx="30" cy="278" r="4" transform="rotate(0,30,278)"/><circle cx="38" cy="262" r="4" transform="rotate(0,38,262)"/><circle cx="38" cy="270" r="4" transform="rotate(0,38,270)"/><circle cx="38" cy="278" r="4" transform="rotate(0,38,278)"/></clipPath></defs><rect x="0" y="0" height="300" width="300" clip-path="url('#clip-path-background-color')" fill="#fff"/><rect x="0" y="0" height="300" width="300" clip-path="url('#clip-path-dot-color')" fill="#22427a"/></svg>